<svg xmlns="http://www.w3.org/2000/svg" width="1200" height="800" viewBox="0 0 1200 800" role="img" aria-labelledby="t1">
	<title id="t1">Abstract partner visual — cool tones</title>
	<defs>
		<linearGradient id="g1" x1="0%" y1="0%" x2="100%" y2="100%">
			<stop offset="0%" stop-color="#f5f5f4"/>
			<stop offset="100%" stop-color="#e7e5e4"/>
		</linearGradient>
		<linearGradient id="sky1" x1="0%" y1="0%" x2="0%" y2="100%">
			<stop offset="0%" stop-color="#e0e7ef"/>
			<stop offset="55%" stop-color="#f5f5f4"/>
		</linearGradient>
	</defs>
	<rect width="1200" height="800" fill="url(#g1)"/>
	<rect width="1200" height="800" fill="url(#sky1)" opacity="0.85"/>
	<rect x="1" y="1" width="1198" height="798" fill="none" stroke="#d6d3d1" stroke-width="2"/>
	<path fill="#cbd5e1" opacity="0.55" d="M0 520 L180 380 L320 460 L480 320 L620 400 L780 260 L920 340 L1080 220 L1200 300 L1200 800 L0 800 Z"/>
	<path fill="#94a3b8" opacity="0.35" d="M0 560 L220 440 L400 500 L560 380 L760 480 L960 360 L1200 420 L1200 800 L0 800 Z"/>
	<rect x="880" y="480" width="140" height="220" rx="4" fill="#a8a29e" opacity="0.25"/>
	<rect x="720" y="420" width="120" height="280" rx="4" fill="#78716c" opacity="0.2"/>
	<rect x="560" y="460" width="100" height="240" rx="4" fill="#64748b" opacity="0.22"/>
</svg>
