<?xml version="1.0" encoding="utf-8"?>
<svg xmlns="http://www.w3.org/2000/svg" viewBox="0 0 500 500" xmlns:bx="https://boxy-svg.com" width="500px" height="500px"><defs><bx:export><bx:file format="svg"/></bx:export></defs><path d="M 178.304 263.238 C 158.955 263.313 143.285 277.735 143.204 295.542 L 143.204 295.822 C 143.285 313.676 159.036 328.128 178.457 328.128 C 197.775 328.128 213.464 313.827 213.708 296.102 L 213.711 295.683 L 213.708 295.263 C 213.465 277.584 197.857 263.313 178.608 263.238 L 178.304 263.238 Z" fill="black" style="fill: black; fill-opacity: 1; stroke-width: 1;"/><path d="M 143.204 291.13 C 145.386 276.68 157.81 265.247 173.511 263.238 L 143.204 263.238 L 143.204 291.13 Z" fill="black" style="fill: black; fill-opacity: 1; stroke-width: 1;"/><path d="M 143.204 262.925 L 173.511 262.925 C 157.81 260.916 145.386 249.482 143.204 235.032 L 143.204 262.925 Z" fill="black" style="fill: black; fill-opacity: 1; stroke-width: 1;"/><path d="M 178.457 198.036 C 159.036 198.036 143.285 212.487 143.204 230.341 L 143.204 230.621 C 143.285 248.423 158.945 262.84 178.286 262.925 L 178.628 262.925 C 197.868 262.84 213.465 248.573 213.708 230.9 L 213.711 230.481 L 213.708 230.061 C 213.464 212.336 197.775 198.036 178.457 198.036 Z" fill="black" style="fill: black; fill-opacity: 1; stroke-width: 1;"/><path d="M 183.395 198.036 C 199.102 200.042 211.53 211.481 213.711 225.936 L 213.711 198.036 L 183.395 198.036 Z" fill="black" style="fill: black; fill-opacity: 1; stroke-width: 1;"/><path d="M 213.711 169.821 C 211.531 184.277 199.102 195.715 183.395 197.721 L 213.711 197.721 L 213.711 169.821 Z" fill="black" style="fill: black; fill-opacity: 1; stroke-width: 1;"/><path d="M 178.304 132.833 C 158.955 132.908 143.285 147.329 143.204 165.137 L 143.204 165.417 C 143.285 183.272 159.036 197.721 178.457 197.721 C 197.775 197.721 213.464 183.421 213.708 165.696 L 213.711 165.277 L 213.708 164.857 C 213.465 147.179 197.857 132.908 178.608 132.833 L 178.304 132.833 Z" fill="black" style="fill: black; fill-opacity: 1; stroke-width: 1;"/><path d="M 143.204 160.726 C 145.386 146.276 157.81 134.842 173.511 132.833 L 143.204 132.833 L 143.204 160.726 Z" fill="black" style="fill: black; fill-opacity: 1; stroke-width: 1;"/><path d="M 112.555 132.833 C 128.256 134.842 140.679 146.276 142.862 160.726 L 142.862 132.833 L 112.555 132.833 Z" fill="black" style="fill: black; fill-opacity: 1; stroke-width: 1;"/><path d="M 72.355 160.726 C 74.538 146.276 86.964 134.842 102.664 132.833 L 72.355 132.833 L 72.355 160.726 Z" fill="black" style="fill: black; fill-opacity: 1; stroke-width: 1;"/><path d="M 143.204 197.721 L 173.519 197.721 C 157.814 195.715 145.386 184.28 143.204 169.828 L 143.204 197.721 Z" fill="black" style="fill: black; fill-opacity: 1; stroke-width: 1;"/><path d="M 143.204 225.929 C 145.386 211.477 157.814 200.042 173.519 198.036 L 143.204 198.036 L 143.204 225.929 Z" fill="black" style="fill: black; fill-opacity: 1; stroke-width: 1;"/><path d="M 213.711 235.025 C 211.531 249.478 199.105 260.916 183.402 262.925 L 213.711 262.925 L 213.711 235.025 Z" fill="black" style="fill: black; fill-opacity: 1; stroke-width: 1;"/><path d="M 183.402 263.238 C 199.105 265.247 211.531 276.684 213.711 291.137 L 213.711 263.238 L 183.402 263.238 Z" fill="black" style="fill: black; fill-opacity: 1; stroke-width: 1;"/><path d="M 213.711 300.226 C 211.531 314.682 199.102 326.122 183.395 328.128 L 213.711 328.128 L 213.711 300.226 Z" fill="black" style="fill: black; fill-opacity: 1; stroke-width: 1;"/><path d="M 214.052 328.128 L 244.369 328.128 C 228.661 326.122 216.232 314.682 214.052 300.226 L 214.052 328.128 Z" fill="black" style="fill: black; fill-opacity: 1; stroke-width: 1;"/><path d="M 284.56 300.233 C 282.377 314.686 269.95 326.122 254.244 328.128 L 284.56 328.128 L 284.56 300.233 Z" fill="black" style="fill: black; fill-opacity: 1; stroke-width: 1;"/><path d="M 284.9 328.128 L 315.216 328.128 C 299.511 326.122 287.084 314.686 284.9 300.233 L 284.9 328.128 Z" fill="black" style="fill: black; fill-opacity: 1; stroke-width: 1;"/><path d="M 320.002 263.238 C 300.652 263.313 284.982 277.735 284.9 295.542 L 284.9 295.822 C 284.983 313.676 300.734 328.128 320.154 328.128 C 339.473 328.128 355.162 313.827 355.407 296.102 L 355.407 295.683 L 355.407 295.263 C 355.162 277.584 339.554 263.313 320.306 263.238 L 320.002 263.238 Z" fill="black" style="fill: black; fill-opacity: 1; stroke-width: 1;"/><path d="M 355.407 235.025 C 353.228 249.478 340.803 260.916 325.1 262.925 L 355.407 262.925 L 355.407 235.025 Z" fill="black" style="fill: black; fill-opacity: 1; stroke-width: 1;"/><path d="M 355.75 262.925 L 386.059 262.925 C 370.355 260.916 357.93 249.478 355.75 235.025 L 355.75 262.925 Z" fill="black" style="fill: black; fill-opacity: 1; stroke-width: 1;"/><path d="M 355.75 291.137 C 357.93 276.684 370.355 265.247 386.059 263.238 L 355.75 263.238 L 355.75 291.137 Z" fill="black" style="fill: black; fill-opacity: 1; stroke-width: 1;"/><path d="M 325.1 263.238 C 340.803 265.247 353.228 276.684 355.407 291.137 L 355.407 263.238 L 325.1 263.238 Z" fill="black" style="fill: black; fill-opacity: 1; stroke-width: 1;"/><path d="M 391.006 198.036 C 371.535 198.036 355.75 212.562 355.75 230.481 L 355.754 230.9 C 355.995 248.573 371.593 262.84 390.832 262.925 L 391.176 262.925 C 410.513 262.84 426.167 248.432 426.259 230.638 L 426.259 230.324 C 426.167 212.477 410.421 198.036 391.006 198.036 Z" fill="black" style="fill: black; fill-opacity: 1; stroke-width: 1;"/><path d="M 355.75 225.936 C 357.93 211.481 370.359 200.042 386.065 198.036 L 355.75 198.036 L 355.75 225.936 Z" fill="black" style="fill: black; fill-opacity: 1; stroke-width: 1;"/><path d="M 390.853 132.833 C 371.45 132.908 355.75 147.405 355.75 165.277 L 355.754 165.696 C 355.999 183.421 371.685 197.721 391.006 197.721 C 410.421 197.721 426.167 183.28 426.259 165.434 L 426.259 165.12 C 426.167 147.32 410.503 132.908 391.155 132.833 L 390.853 132.833 Z" fill="black" style="fill: black; fill-opacity: 1; stroke-width: 1;"/><path d="M 355.75 197.721 L 386.065 197.721 C 370.359 195.715 357.93 184.277 355.75 169.821 L 355.75 197.721 Z" fill="black" style="fill: black; fill-opacity: 1; stroke-width: 1;"/><path d="M 395.942 198.036 C 411.642 200.042 424.074 211.477 426.259 225.929 L 426.259 198.036 L 395.942 198.036 Z" fill="black" style="fill: black; fill-opacity: 1; stroke-width: 1;"/><path d="M 426.259 169.828 C 424.074 184.28 411.642 195.715 395.942 197.721 L 426.259 197.721 L 426.259 169.828 Z" fill="black" style="fill: black; fill-opacity: 1; stroke-width: 1;"/><line x1="220.389" y1="501.5" x2="292.568" y2="84.446" stroke="black" style="stroke: black; stroke-opacity: 1; stroke-width: 11;" stroke-width="11"/></svg>